<svg width="149" height="148" viewBox="0 0 149 148" fill="none" xmlns="http://www.w3.org/2000/svg">
<g clip-path="url(#clip0_32_43)">
<path d="M76.8251 36.0713L78.0468 1.0863C89.9632 1.66593 101.562 5.15787 111.824 11.2629C122.372 17.5384 131.168 26.3724 137.398 36.948C143.628 47.5236 147.091 59.4993 147.466 71.7677C147.841 84.0361 145.117 96.2011 139.545 107.138C133.974 118.074 125.734 127.43 115.589 134.338C105.444 141.247 93.7205 145.486 81.5029 146.663C69.2854 147.841 56.9682 145.919 45.6904 141.075C34.7189 136.362 25.0757 129.033 17.6015 119.734L45.1844 98.1785C49.0313 102.843 53.9391 106.526 59.5032 108.916C65.3739 111.437 71.7856 112.438 78.1454 111.825C84.5052 111.212 90.6078 109.005 95.8888 105.409C101.17 101.813 105.459 96.9429 108.359 91.2498C111.26 85.5568 112.678 79.2243 112.482 72.838C112.287 66.4517 110.484 60.2178 107.241 54.7127C103.998 49.2076 99.4197 44.6091 93.9287 41.3424C88.7244 38.2462 82.8598 36.4412 76.8251 36.0713Z" fill="#F5DB9C" stroke="#EFC660" stroke-width="2"/>
<path d="M42.4506 94.4165L13.4313 113.995C6.50511 103.42 2.44077 91.2211 1.64464 78.593C0.848514 65.9649 3.34868 53.3527 8.89183 41.991L40.1403 57.7701C37.4001 63.5711 36.1709 69.9771 36.5753 76.3908C36.9796 82.8046 39.0036 89.0055 42.4506 94.4165Z" fill="#FFA898" stroke="#FE684D" stroke-width="2"/>
<path d="M42.3799 53.6948L12.3083 35.7744C17.492 27.3408 24.3369 20.0494 32.4267 14.344L52.2087 43.2251C48.2968 46.0585 44.9609 49.612 42.3799 53.6948Z" fill="#99CDFF" stroke="#369AFC" stroke-width="2"/>
<path d="M56.1346 40.7326L38.4154 10.542C43.0088 7.93005 47.8721 5.82454 52.92 4.2625L62.8094 37.8429C60.4972 38.5905 58.262 39.5582 56.1346 40.7326Z" fill="#B5E7EB" stroke="#5BBDC3" stroke-width="2"/>
<path d="M67.3133 36.6857L59.7905 2.49722C63.4654 1.74122 67.1931 1.26966 70.9405 1.08671L72.1683 36.0715C70.5384 36.1717 68.9167 36.3768 67.3133 36.6857Z" fill="#C9BCFF" stroke="#9479FF" stroke-width="2"/>
</g>
<defs>
<clipPath id="clip0_32_43">
<rect width="148" height="148" fill="white" transform="translate(0.5)"/>
</clipPath>
</defs>
</svg>
