<svg width="180" height="34" viewBox="0 0 180 34" fill="none" xmlns="http://www.w3.org/2000/svg">
<path d="M36.1678 18.9124V24.2556H40.0919C42.2654 24.2556 43.503 23.2594 43.503 21.6293C43.503 19.9088 42.2353 18.9124 40.0919 18.9124H36.1678ZM36.1678 10.2793V15.411H39.7901C41.722 15.411 42.8691 14.4148 42.8691 12.8451C42.8691 11.2755 41.7522 10.2793 39.7901 10.2793H36.1678ZM31.6398 6.71734H39.6693C44.5597 6.71734 47.397 8.77005 47.397 12.3017C47.397 14.9582 45.8274 16.4674 43.4124 16.9806C46.2199 17.343 48.1518 18.8221 48.1518 21.8407C48.1518 25.5233 45.254 27.8477 40.0618 27.8477H31.6398V6.71734Z" fill="#1D1D1B"/>
<path d="M59.6835 12.332H63.9398V27.8478H60.1663L59.7739 25.9761C58.7778 27.1836 57.4194 28.0288 55.2158 28.0288C52.0161 28.0288 49.058 26.4291 49.058 20.9352V12.332H53.3142V20.3616C53.3142 23.1387 54.2196 24.4971 56.3327 24.4971C58.4459 24.4971 59.6835 22.9575 59.6835 20.0901V12.332Z" fill="#1D1D1B"/>
<path d="M65.6906 12.3319H69.9771V27.8477H65.6906V12.3319ZM65.3585 8.28693C65.3585 6.89839 66.4452 5.87214 67.8338 5.87214C69.2223 5.87214 70.3091 6.89839 70.3091 8.28693C70.3091 9.64526 69.2223 10.6716 67.8338 10.6716C66.4452 10.6716 65.3585 9.64526 65.3585 8.28693Z" fill="#1D1D1B"/>
<path d="M71.6978 6.71724H75.954V27.8477H71.6978V6.71724Z" fill="#1D1D1B"/>
<path d="M89.0248 20.1201C89.0248 17.4637 87.5759 15.6222 85.2515 15.6222C82.9271 15.6222 81.448 17.4336 81.448 20.09C81.448 22.7462 82.9271 24.5575 85.2515 24.5575C87.5759 24.5575 89.0248 22.7462 89.0248 20.1201ZM88.9644 6.71735H93.2208V27.8478H89.5079L89.0851 25.7045C88.059 27.0327 86.5494 28.0288 84.3157 28.0288C80.1501 28.0288 77.1011 24.98 77.1011 20.0597C77.1011 15.2601 80.1501 12.1508 84.2854 12.1508C86.4289 12.1508 87.9684 12.9961 88.9644 14.2639V6.71735Z" fill="#1D1D1B"/>
<path d="M99.8323 18.9124V24.2556H103.756C105.93 24.2556 107.167 23.2594 107.167 21.6293C107.167 19.9088 105.899 18.9124 103.756 18.9124H99.8323ZM99.8323 10.2793V15.411H103.455C105.386 15.411 106.534 14.4148 106.534 12.8451C106.534 11.2755 105.416 10.2793 103.455 10.2793H99.8323ZM95.304 6.71734H103.334C108.224 6.71734 111.061 8.77005 111.061 12.3017C111.061 14.9582 109.492 16.4674 107.077 16.9806C109.884 17.343 111.816 18.8221 111.816 21.8407C111.816 25.5233 108.918 27.8477 103.726 27.8477H95.304V6.71734Z" fill="#1D1D1B"/>
<path d="M123.348 12.332H127.604V27.8478H123.831L123.438 25.9761C122.442 27.1836 121.084 28.0288 118.88 28.0288C115.681 28.0288 112.722 26.4291 112.722 20.9352V12.332H116.979V20.3616C116.979 23.1387 117.884 24.4971 119.997 24.4971C122.11 24.4971 123.348 22.9575 123.348 20.0901V12.332Z" fill="#1D1D1B"/>
<path d="M140.675 20.1201C140.675 17.4637 139.226 15.6222 136.901 15.6222C134.577 15.6222 133.098 17.4336 133.098 20.09C133.098 22.7462 134.577 24.5575 136.901 24.5575C139.226 24.5575 140.675 22.7462 140.675 20.1201ZM140.614 6.71735H144.87V27.8478H141.158L140.735 25.7045C139.709 27.0327 138.2 28.0288 135.966 28.0288C131.8 28.0288 128.751 24.98 128.751 20.0597C128.751 15.2601 131.8 12.1508 135.936 12.1508C138.079 12.1508 139.618 12.9961 140.614 14.2639V6.71735Z" fill="#1D1D1B"/>
<path d="M157.942 20.1201C157.942 17.4637 156.493 15.6222 154.168 15.6222C151.845 15.6222 150.365 17.4336 150.365 20.09C150.365 22.7462 151.845 24.5575 154.168 24.5575C156.493 24.5575 157.942 22.7462 157.942 20.1201ZM157.882 6.71735H162.138V27.8478H158.425L158.002 25.7045C156.976 27.0327 155.467 28.0288 153.233 28.0288C149.067 28.0288 146.018 24.98 146.018 20.0597C146.018 15.2601 149.067 12.1508 153.203 12.1508C155.346 12.1508 156.885 12.9961 157.882 14.2639V6.71735Z" fill="#1D1D1B"/>
<path d="M162.833 12.332H167.361L171.134 23.3802L174.817 12.332H179.375L172.492 30.0513C171.526 32.617 170.741 33.885 168.327 33.885H164.191V30.2929H166.546C167.633 30.2929 167.995 30.0212 168.417 28.9646L168.81 27.9383L162.833 12.332Z" fill="#1D1D1B"/>
<path d="M2.96813 22.4405L11.3544 27.282L19.7403 22.4405V12.7573L11.373 7.92631L6.22188 10.9718V5.03465L2.96813 6.96433V22.4405ZM11.3544 30.7092L0 24.1541V5.21454L9.19 -4.00543e-05V5.69892L11.3356 4.47736L22.7083 11.0436V24.1541L11.3544 30.7092Z" fill="#FF5C42"/>
</svg>
